<svg t="1572872812462" class="icon" viewBox="0 0 1024 1024" version="1.1" xmlns="http://www.w3.org/2000/svg" p-id="2818" width="200" height="200"><path d="M511.977739 0C293.62087 0 107.27513 136.681739 33.658435 329.149217H112.862609a438.917565 438.917565 0 0 1 88.820869-127.465739A435.934609 435.934609 0 0 1 512 73.149217c117.225739 0 227.439304 45.634783 310.316522 128.534261A435.95687 435.95687 0 0 1 950.873043 512c0 117.225739-45.634783 227.439304-128.53426 310.316522a436.023652 436.023652 0 0 1-310.338783 128.534261 435.95687 435.95687 0 0 1-310.316522-128.534261 438.962087 438.962087 0 0 1-88.820869-127.465739H33.636174C107.27513 887.318261 293.665391 1024 511.977739 1024 794.757565 1024 1024 794.779826 1024 512 1024 229.242435 794.757565 0 511.977739 0z" p-id="2819"></path><path d="M399.693913 667.158261l51.712 51.712L658.276174 512l-206.870261-206.870261-51.712 51.712 118.583652 118.583652H0v73.149218h518.277565z" p-id="2820"></path></svg>