<svg xmlns="http://www.w3.org/2000/svg" viewBox="0 0 24 24" id="assembly"><path d="M1.746 1.566v20.905H5.13v-2.088H3.438V3.656h1.69v-2.09H1.747zm17.219 0v2.09h1.693v16.727h-1.693v2.09h3.383V1.566h-3.383zM15.196 3.988c-.5 0-.93.076-1.29.225-.359.15-.652.372-.877.671-.226.302-.39.673-.494 1.108a6.715 6.715 0 0 0-.155 1.54c0 .573.049 1.083.15 1.528.1.442.264.811.49 1.11.222.298.512.524.872.676.36.153.795.23 1.304.23.518 0 .954-.075 1.308-.224.353-.153.643-.376.869-.671.219-.29.38-.661.484-1.112.104-.454.156-.967.156-1.54 0-.573-.052-1.079-.152-1.515a2.92 2.92 0 0 0-.485-1.106 2.09 2.09 0 0 0-.868-.686c-.354-.155-.79-.234-1.312-.234zm-6.814.12a.941.941 0 0 1-.138.458.849.849 0 0 1-.356.296A1.71 1.71 0 0 1 7.385 5a5.244 5.244 0 0 1-.631.037v1.11H8.19v3.6H6.754v1.188h4.545V9.745H9.894V4.11H8.382zm6.814 1.138c.375 0 .643.176.805.527.161.348.241.933.241 1.756 0 .814-.082 1.399-.247 1.756-.164.356-.43.534-.799.534-.369 0-.636-.178-.8-.534-.165-.357-.248-.941-.248-1.749 0-.829.082-1.415.243-1.763.162-.35.43-.527.805-.527zm-6.33 7.64c-.5 0-.93.073-1.29.223-.359.15-.651.374-.877.673-.225.302-.39.67-.494 1.106a6.715 6.715 0 0 0-.155 1.54c0 .573.05 1.082.15 1.527.1.442.264.814.49 1.112.222.3.514.525.874.677.36.152.793.229 1.302.229.519 0 .954-.076 1.308-.225.354-.153.643-.376.869-.672.22-.29.38-.66.484-1.111.104-.455.156-.967.156-1.54 0-.573-.05-1.079-.15-1.515a2.923 2.923 0 0 0-.487-1.106 2.084 2.084 0 0 0-.867-.686c-.353-.156-.791-.232-1.313-.232zm5.846.119a.941.941 0 0 1-.138.457.85.85 0 0 1-.356.296 1.71 1.71 0 0 1-.503.137 5.245 5.245 0 0 1-.631.037v1.112h1.435v3.597h-1.435v1.189h4.545v-1.189h-1.405v-5.636h-1.512zm-5.846 1.137c.375 0 .643.176.805.527.162.347.241.933.241 1.756 0 .813-.08 1.399-.245 1.755-.164.357-.432.534-.8.534-.37 0-.637-.177-.802-.534-.164-.356-.245-.939-.245-1.746 0-.83.08-1.418.242-1.765.161-.35.43-.527.804-.527z" fill="#ff6e40"></path></svg>