<svg t="1572353683745" class="icon" viewBox="0 0 1024 1024" version="1.1" xmlns="http://www.w3.org/2000/svg" p-id="5484" width="200" height="200"><path d="M358.712 462.622c-12.497-12.497-32.758-12.497-45.255 0L193.895 582.183a32 32 0 0 0 0 45.255L313.457 747c6.249 6.25 14.437 9.374 22.627 9.373 8.188-0.001 16.38-3.125 22.627-9.372 12.497-12.497 12.497-32.759 0-45.255l-96.935-96.936 96.935-96.934c12.497-12.496 12.497-32.757 0.001-45.254zM704.812 462.622c-12.496-12.497-32.758-12.497-45.254 0-12.497 12.497-12.497 32.758 0 45.255l96.934 96.934-96.935 96.936c-12.496 12.496-12.496 32.758 0.001 45.255 6.248 6.248 14.438 9.372 22.627 9.372s16.379-3.124 22.628-9.373l119.562-119.563c12.496-12.496 12.496-32.758-0.001-45.255L704.812 462.622z" p-id="5485"></path><path d="M895.601 163.784h-766.64c-35.29 0-64 28.71-64 64v615.615c0 35.29 28.71 64 64 64h766.64c35.29 0 64-28.71 64-64V227.784c0-35.29-28.71-64-64-64z m-30.928 95.858v23.306c0 7.436-6.083 13.52-13.518 13.52h-23.306c-7.435 0-13.518-6.084-13.518-13.52v-23.306c0-7.433 6.083-13.516 13.518-13.516h23.306c7.435 0 13.518 6.083 13.518 13.516z m-81.805 0v23.306c0 7.436-6.083 13.52-13.518 13.52h-23.306c-7.435 0-13.518-6.084-13.518-13.52v-23.306c0-7.433 6.083-13.516 13.518-13.516h23.306c7.435 0 13.518 6.083 13.518 13.516z m-81.806 0v23.306c0 7.436-6.083 13.52-13.518 13.52h-23.306c-7.435 0-13.518-6.084-13.518-13.52v-23.306c0-7.433 6.083-13.516 13.518-13.516h23.306c7.435 0 13.518 6.083 13.518 13.516z m194.481 583.756H129.019a0.53 0.53 0 0 1-0.058-0.058V346.809h766.64v496.532a0.52 0.52 0 0 1-0.058 0.057z" p-id="5486"></path><path d="M575.04 455.757c-16.29-6.859-35.052 0.785-41.91 17.075L432.447 711.955c-6.858 16.288 0.786 35.053 17.074 41.91a31.892 31.892 0 0 0 12.404 2.517c12.488 0 24.355-7.359 29.506-19.591l100.683-239.124c6.859-16.289-0.786-35.052-17.074-41.91z" p-id="5487"></path></svg>